<?xml version="1.0" encoding="UTF-8"?>
<svg width="54px" height="54px" viewBox="0 0 54 54" version="1.1" xmlns="http://www.w3.org/2000/svg" xmlns:xlink="http://www.w3.org/1999/xlink">
    <!-- Generator: sketchtool 50.2 (55047) - http://www.bohemiancoding.com/sketch -->
    <title>80372368-59AD-4B1A-A385-694DC90C9564</title>
    <desc>Created with sketchtool.</desc>
    <defs></defs>
    <g id="Page-1" stroke="none" stroke-width="1" fill="none" fill-rule="evenodd">
        <g id="Обученность_2" transform="translate(-930.000000, -115.000000)">
            <g id="Feedback_icon" transform="translate(931.000000, 116.000000)">
                <circle id="Oval-4" stroke="#454545" cx="26" cy="26" r="26"></circle>
                <path d="M19.1603053,38.4557877 L19.1603053,33.7959696 L17.5063613,33.7959696 C15.5877863,33.7959696 14,32.1633327 14,30.190563 L14,19.1362501 C14,17.1634805 15.5877863,15.5308435 17.5063613,15.5308435 L28.3231552,15.5308435 C28.653944,15.5308435 28.9185751,15.8029496 28.9185751,16.1430824 C28.9185751,16.4832151 28.653944,16.7553212 28.3231552,16.7553212 L17.5063613,16.7553212 C16.2493639,16.7553212 15.2239186,17.8097326 15.2239186,19.1022369 L15.2239186,30.1565497 C15.2239186,31.449054 16.2493639,32.5034654 17.5063613,32.5034654 L19.7888041,32.5034654 C20.1195929,32.5034654 20.3842239,32.7755715 20.3842239,33.1157042 L20.3842239,36.9251905 L24.7175573,32.6395185 C24.8167939,32.5374786 24.9821883,32.4694521 25.1475827,32.4694521 L35.1374046,32.4694521 C36.0636132,32.4694521 36.9236641,31.8572132 37.2875318,30.9728682 C37.4198473,30.6667488 37.7506361,30.4966824 38.0814249,30.6327355 C38.3791349,30.7687886 38.5445293,31.1089213 38.4122137,31.449054 C37.8829517,32.8095848 36.5597964,33.7279431 35.1374046,33.7279431 L25.4122137,33.7279431 L20.2188295,38.8299336 C20.1195929,38.9319735 19.9541985,39 19.7888041,39 C19.7226463,39 19.6234097,39 19.5572519,38.9659867 C19.2926209,38.9319735 19.1603053,38.6938806 19.1603053,38.4557877 Z M40,20.9729667 C40,20.9729667 40,20.9729667 40,20.9729667 C40,21.0409933 40,21.1090198 40,21.1430331 L39.0407125,27.2654217 C38.8422392,28.8300322 37.7506361,29.7483905 36.129771,29.7483905 L35.8651399,29.7483905 L35.0381679,29.7483905 L31.5318066,29.7483905 L31.3002545,29.7483905 L29.0508906,29.7483905 C28.389313,29.7483905 27.7608142,29.4762843 27.3307888,29.0341118 C27.1323155,29.2041782 26.8676845,29.306218 26.5699746,29.306218 L24.2544529,29.306218 C23.5928753,29.306218 23.0636132,28.7620056 23.0636132,28.0817402 L23.0636132,20.4627677 C23.0636132,19.7825023 23.5928753,19.2382899 24.2544529,19.2382899 L26.5699746,19.2382899 C26.9338422,19.2382899 27.2315522,19.4083563 27.4631043,19.6464492 C27.4631043,19.6464492 27.4631043,19.6464492 27.4961832,19.6464492 C27.5954198,19.6124359 30.1094148,18.864144 30.1094148,16.6872947 L30.1094148,13.7281402 C30.1094148,13.456034 30.2748092,13.2179411 30.5394402,13.1499146 C30.605598,13.1159013 32.0610687,12.6737288 33.1195929,13.4900473 C33.7811705,14.0002463 34.1450382,14.8505781 34.1450382,16.0410425 L34.1450382,18.489998 L35.0381679,18.489998 L36.956743,18.489998 L37.4860051,18.489998 C38.9083969,18.4219715 40,19.5444094 40,20.9729667 Z M26.6030534,20.4287544 L24.3206107,20.4287544 L24.3206107,28.047727 L26.6030534,28.047727 L26.6030534,20.4287544 Z M38.8091603,20.9729667 C38.8091603,20.9729667 38.8091603,20.9729667 38.8091603,20.9729667 C38.8091603,20.2246748 38.2468193,19.6464492 37.519084,19.6464492 L36.9898219,19.6464492 L35.0712468,19.6464492 L33.5826972,19.6464492 C33.2519084,19.6464492 32.9872774,19.374343 32.9872774,19.0342103 L32.9872774,15.973016 C32.9872774,15.2247241 32.821883,14.6805117 32.4580153,14.4424188 C32.1272265,14.2043259 31.697201,14.1703127 31.3994911,14.2043259 L31.3994911,16.6532814 C31.3994911,19.7825023 28.0585242,20.7688871 27.9262087,20.8029004 C27.9262087,20.8029004 27.8931298,20.8029004 27.8931298,20.8029004 L27.8931298,27.1633819 C27.8931298,27.8776606 28.4554707,28.4898995 29.1832061,28.4898995 L31.43257,28.4898995 L31.6641221,28.4898995 L35.1704835,28.4898995 L35.9974555,28.4898995 L36.2620865,28.4898995 C37.8167939,28.4898995 37.9491094,27.4354881 37.9821883,27.0953554 C37.9821883,27.0953554 37.9821883,27.0953554 37.9821883,27.0613421 L38.8091603,20.9729667 Z" id="Shape-Copy-3" fill="#454545" fill-rule="nonzero"></path>
            </g>
        </g>
    </g>
</svg>