<?xml version="1.0" encoding="UTF-8"?>
<svg width="28px" height="28px" viewBox="0 0 28 28" version="1.1" xmlns="http://www.w3.org/2000/svg" xmlns:xlink="http://www.w3.org/1999/xlink">
    <!-- Generator: sketchtool 50.2 (55047) - http://www.bohemiancoding.com/sketch -->
    <title>A1CC8F9B-1687-457E-A356-682795698B96</title>
    <desc>Created with sketchtool.</desc>
    <defs></defs>
    <g id="Symbols" stroke="none" stroke-width="1" fill="none" fill-rule="evenodd">
        <g id="icon/численность" stroke="#454545">
            <g id="Group-Copy-2" transform="translate(13.000000, 3.000000)" stroke-width="1.20000005">
                <path d="M5.44661264,10.9990244 C5.28448418,10.9042504 5.10542657,10.790921 4.90625264,10.6554067 C3.92687887,9.98905919 3.28808869,8.0062177 2.93995136,6.83275304 C2.3183561,4.73754517 2.57142199,3.29571433 3.37555059,2.18642446 C4.17967919,1.07713458 5.27187285,0.930050647 5.5661363,0.930050647 C5.86039976,0.930050647 5.96273161,0.691717326 6.68926874,0.562156522 C7.41580587,0.432595717 9.06608512,0.285076956 10.4909872,2.18642446 C11.9158894,4.08777195 11.1015103,6.67957362 10.9189852,6.83275304 C10.7364602,6.98593246 10.8313113,7.51411418 10.4909872,8.42544816 C10.0442658,9.62169735 9.27795782,10.6203252 8.6585155,10.9565217 C8.61643036,10.9793631 8.57534727,11.0012536 8.53522944,11.0222312 C8.66352484,11.9929773 8.99137006,12.7492136 9.51876509,13.29094 C10.3276191,14.1217738 11.619426,14.3908388 11.9328854,14.4282931 C12.2463449,14.4657474 13.0672932,14.5299294 13.6624564,15.1412655 C14.2576195,15.7526015 14.3565961,16.623295 14.3565961,16.9178655 C14.3565961,18.2155824 14.3565961,19.5132994 14.3565961,20.8110164 C14.3565961,20.8614424 14.3157177,20.9023207 14.2652917,20.9023207 L6.9788183,20.9023207 L4.30463751,20.9023207 C4.30463751,19.4225662 4.26470434,18.3859107 4.18483798,17.7923541 C4.06503845,16.9020192 2.94081587,15.9294212 1.82693991,15.8513514 C0.713063948,15.7732815 0.353356742,15.4381621 0.175471344,15.2477657 C0.770634464,14.6364296 1.73247343,14.4657474 2.04593288,14.4282931 C2.35939233,14.3908388 3.65119921,14.1217738 4.46005322,13.29094 C4.99164352,12.7449043 5.32049666,11.9809325 5.44661264,10.9990244 Z" id="Combined-Shape"></path>
                <path d="M2.86443214,6.91593195 C3.47013776,6.38115611 3.86481808,5.98792664 4.0484731,5.73624353 C4.62090778,4.95177197 4.74839451,4.30649945 4.74839451,4.12545843 C4.74839451,3.7232087 5.14826265,4.80796119 5.91504611,4.96639614 C6.68182958,5.12483109 8.42684668,4.67323125 9.72905262,4.96639614 C10.5971899,5.16183939 10.9954061,5.81168467 10.9237011,6.91593195" id="Path-6"></path>
                <path d="M5.09465149,10.770313 C5.77278513,11.2229081 6.38984255,11.4492056 6.94582373,11.4492056 C7.50180492,11.4492056 8.1276791,11.256496 8.82344627,10.8710768" id="Path-7"></path>
                <path d="M3.69398588,13.8573478 L6.6297734,17.9238883 C6.74783856,18.0874277 6.97612413,18.1242918 7.13966348,18.0062266 C7.17133649,17.9833607 7.19913584,17.9555613 7.22200177,17.9238883 L10.1577893,13.8573478" id="Path-8"></path>
            </g>
            <g id="Group" transform="translate(0.000000, 3.000000)">
                <path d="M7.25243922,12.0465506 C7.07004471,11.9427505 6.86860489,11.8186277 6.64453422,11.6702074 C5.54273873,10.9403982 4.82409977,8.76871462 4.43244528,7.48349143 C3.73315062,5.18873995 4.01784974,3.60959189 4.92249441,2.39465536 C5.82713909,1.17971882 7.05585695,1.0186269 7.38690334,1.0186269 C7.71794972,1.0186269 7.83307306,0.757595166 8.65042733,0.615695238 C9.46778161,0.47379531 11.3243458,0.312227143 12.9273607,2.39465536 C14.5303755,4.47708357 13.6141991,7.31572349 13.4088584,7.48349143 C13.2035177,7.65125937 13.3102252,8.2297441 12.9273607,9.22787179 C12.4247991,10.5380495 11.5627026,11.6317848 10.8658299,12 C10.8184842,12.0250167 10.7722657,12.048992 10.7271331,12.0719675 C10.8714654,13.1351657 11.2402913,13.9634244 11.8336107,14.5567438 C12.7435715,15.4667046 14.1968542,15.7613949 14.5494961,15.8024163 C14.902138,15.8434376 15.8257049,15.9137322 16.4952634,16.5832907 C17.1648219,17.2528492 17.2761706,18.206466 17.2761706,18.5290908 C17.2761706,19.9503998 17.2761706,21.3717089 17.2761706,22.7930179 C17.2761706,22.8482464 17.2313991,22.8930179 17.1761706,22.8930179 L8.97617059,22.8930179 L0.79999999,22.8930179 C0.744771514,22.8930179 0.699999988,22.8482464 0.699999988,22.7930179 C0.699999988,21.3717089 0.699999988,19.9503998 0.699999988,18.5290908 C0.699999988,18.206466 0.811348684,17.2528492 1.48090719,16.5832907 C2.1504657,15.9137322 3.07403261,15.8434376 3.42667449,15.8024163 C3.77931637,15.7613949 5.23259911,15.4667046 6.14255987,14.5567438 C6.74059896,13.9587048 7.11055875,13.1219737 7.25243922,12.0465506 Z" id="Combined-Shape" stroke-width="1.20000005"></path>
                <path d="M4.34748616,7.57459214 C5.02890498,6.98888527 5.47292034,6.55820537 5.67953224,6.28255244 C6.32352125,5.4233693 6.46694382,4.71664225 6.46694382,4.51835923 C6.46694382,4.07780001 6.91679548,5.26586225 7.77942688,5.43938624 C8.64205827,5.61291024 10.6052025,5.11830089 12.0701842,5.43938624 C13.0468387,5.65344315 13.4948318,6.36517844 13.4141637,7.57459214" id="Path-6" stroke-width="1.20000005"></path>
                <path d="M6.85648292,11.7960571 C7.61938327,12.2917564 8.31357286,12.5396061 8.9390517,12.5396061 C9.56453053,12.5396061 10.268639,12.3285432 11.0513771,11.9064175" id="Path-7" stroke-width="1.20000005" fill="#FFFFFF"></path>
                <path d="M5.28073411,15.1770953 L8.59532586,19.6468793 C8.72691321,19.8243271 8.9774357,19.8615044 9.1548835,19.729917 C9.1864972,19.7064737 9.2144779,19.678493 9.2379212,19.6468793 L12.552513,15.1770953" id="Path-8" stroke-width="1.19999993"></path>
            </g>
        </g>
    </g>
</svg>